:SAMPLES-PER-SECOND 30
:FULLY-SPECIFIED
:DEGREES
362
root  7.49109 39.0849 -34.0493 2.27405 75.3549 6.19298
RightUpLeg  16.5998 -9.31457 -3.5158
RightLeg  15.4887 10.5247 4.16176
RightFoot  -19.2992 -0.561786 -6.19824
RightToes  -4.65663e-010 0 -3.6325e-017
Spine  1.35184 2.00509 12.3104
Spine1  9.46668 4.76533 -9.81529
HEad  -10.5607 -17.1993 0.611625
LeftShoulder1  8.74707 -12.2647 -48.4217
LeftArm  -7.5489 37.6832 -29.9307
LeftForeArm  29.4698 -7.29288 -5.70454
LeftHand  -0.244104 0.0205437 5.32207
RightShoulder  6.10038 9.63071 40.2913
RightArm  12.56 9.62887 37.345
RightForeArm  4.36181 32.7756 7.00986
RightHand  -0.646098 -0.229982 -14.5444
LeftUpLeg  -17.011 4.98688 5.25431
LeftLeg  -0.119955 8.31864 -4.44493
LeftFoot  4.69582 1.11405 -8.20549
LeftToes  -7.27628e-011 -1.6005e-012 -1.37987e-011
363
root  9.18554 38.8804 -34.0671 3.79947 74.3368 8.04785
RightUpLeg  18.2934 -8.18891 -5.02631
RightLeg  17.5619 11.0981 3.85351
RightFoot  -19.1346 -0.380463 -3.73108
RightToes  -4.65663e-010 0 -3.6325e-017
Spine  1.14676 2.25967 11.4023
Spine1  9.13785 4.99472 -9.85626
HEad  -9.81373 -17.2505 0.402986
LeftShoulder1  8.70641 -12.1502 -48.5495
LeftArm  -7.25738 37.56 -28.9343
LeftForeArm  29.6539 -6.40694 -5.61624
LeftHand  -0.244104 0.0205437 5.32207
RightShoulder  6.10908 9.58995 40.4903
RightArm  12.1758 7.39915 36.6961
RightForeArm  4.63029 33.6232 7.22007
RightHand  -0.710271 0.265189 -14.6299
LeftUpLeg  -17.3578 5.61532 3.29137
LeftLeg  4.70103 7.23945 -3.44202
LeftFoot  9.29385 0.730998 -4.34049
LeftToes  -7.27628e-011 -1.6005e-012 -1.37987e-011
364
root  10.853 38.7668 -34.0213 7.42705 73.1288 12.3159
RightUpLeg  18.9827 -5.30933 -6.7755
RightLeg  21.2403 10.0664 4.03789
RightFoot  -17.622 -0.0775446 0.939893
RightToes  -4.65663e-010 0 -3.6325e-017
Spine  1.37044 2.51164 8.92221
Spine1  8.52859 5.02179 -9.17296
HEad  -9.06638 -17.0751 0.465127
LeftShoulder1  8.71206 -12.0191 -48.9921
LeftArm  -6.70344 36.2758 -27.3413
LeftForeArm  30.1552 -5.19601 -5.57697
LeftHand  -0.244104 0.0205437 5.32207
RightShoulder  6.25791 9.68752 41.2264
RightArm  12.5484 5.17923 35.9107
RightForeArm  4.7077 32.18 6.83158
RightHand  -0.798622 1.01293 -14.5652
LeftUpLeg  -17.6497 8.76096 0.129735
LeftLeg  10.2684 2.92644 -2.04514
LeftFoot  11.1952 0.131852 -0.951423
LeftToes  -7.27628e-011 -1.6005e-012 -1.37987e-011
365
root  12.4007 38.8197 -33.9328 11.7046 71.7334 17.0768
RightUpLeg  16.8396 -2.51859 -8.67686
RightLeg  28.4536 8.23357 4.57624
RightFoot  -12.1704 -0.0558668 6.16122
RightToes  -4.65663e-010 0 -3.6325e-017
Spine  1.93771 2.62088 6.10545
Spine1  7.58551 4.96714 -8.76825
HEad  -8.44434 -16.5869 0.877167
LeftShoulder1  8.7434 -11.965 -49.3398
LeftArm  -5.91083 33.9089 -25.3765
LeftForeArm  30.6931 -4.51946 -5.69543
LeftHand  -0.244104 0.0205437 5.32207
RightShoulder  6.45138 9.85826 42.0153
RightArm  13.6875 3.32958 36.0859
RightForeArm  3.71044 27.71 5.71459
RightHand  -0.888889 1.67886 -14.7173
LeftUpLeg  -17.224 12.2143 -2.89556
LeftLeg  14.4413 -0.0653508 -0.940471
LeftFoot  8.54275 -0.0514064 -0.0314614
LeftToes  -7.27628e-011 -1.6005e-012 -1.37987e-011
366
root  13.7813 38.9634 -33.8575 14.215 69.7359 19.8354
RightUpLeg  11.3031 -0.280839 -10.3262
RightLeg  39.0478 5.64757 4.5974
RightFoot  -1.76833 -0.722341 8.71731
RightToes  -4.65663e-010 0 -3.6325e-017
Spine  2.90611 2.69412 4.37526
Spine1  6.57799 5.09481 -9.43131
HEad  -8.34746 -15.5997 1.06344
LeftShoulder1  8.86078 -12.1219 -49.5008
LeftArm  -5.1672 30.7313 -23.3435
LeftForeArm  30.83 -4.84848 -5.93417
LeftHand  -0.244104 0.0205437 5.32207
RightShoulder  6.56079 10.055 42.1152
RightArm  12.5468 2.28927 37.6589
RightForeArm  4.31704 20.0313 5.35306
RightHand  -0.898877 1.85788 -14.523
LeftUpLeg  -15.5918 14.1584 -4.53794
LeftLeg  16.3094 0.122318 -0.347351
LeftFoot  4.24759 0.0615309 -0.637466
LeftToes  -7.27628e-011 -1.6005e-012 -1.37987e-011
367
root  14.9843 39.0863 -33.7957 14.6265 66.994 20.5919
RightUpLeg  4.19341 1.87101 -11.488
RightLeg  49.7225 2.64217 2.96771
RightFoot  8.44625 -1.3132 7.92108
RightToes  -4.65663e-010 0 -3.6325e-017
Spine  4.34105 2.83015 3.20891
Spine1  5.97844 5.27292 -10.5423
HEad  -9.03264 -13.9395 0.527593
LeftShoulder1  9.08973 -12.4462 -49.7482
LeftArm  -4.95988 26.9888 -21.4589
LeftForeArm  30.238 -5.81973 -6.10935
LeftHand  -0.244104 0.0205437 5.32207
RightShoulder  6.62524 10.3184 41.6892
RightArm  2.44232 2.32879 39.1496
RightForeArm  14.5301 10.317 7.82971
RightHand  -0.75416 1.19882 -13.373
LeftUpLeg  -13.1932 14.534 -4.97383
LeftLeg  16.7698 2.3284 -0.40161
LeftFoot  1.37362 0.0780727 -0.762021
LeftToes  -7.27628e-011 -1.6005e-012 -1.37987e-011
368
root  16.1551 39.2971 -33.7108 13.1454 64.6087 19.5805
RightUpLeg  -2.1464 3.01008 -11.6706
RightLeg  57.4509 0.0385746 -0.364513
RightFoot  12.3251 -1.08807 5.54863
RightToes  -4.65663e-010 0 -3.6325e-017
Spine  5.65629 2.61867 2.44342
Spine1  5.7626 4.9618 -10.5975
HEad  -10.283 -11.7824 -0.350284
LeftShoulder1  9.31505 -12.7287 -50.0946
LeftArm  -5.53915 22.8095 -19.8013
LeftForeArm  29.038 -6.91614 -6.11109
LeftHand  -0.244104 0.0205437 5.32207
RightShoulder  6.75412 10.6247 41.5685
RightArm  -2.41725 2.5382 39.6162
RightForeArm  21.2624 3.38358 7.51644
RightHand  -0.554201 0.04401 -11.8913
LeftUpLeg  -10.0624 12.8274 -4.22724
LeftLeg  16.0989 6.14961 -0.94537
LeftFoot  0.0154961 0.0334691 -0.340534
LeftToes  -7.27628e-011 -1.6005e-012 -1.37987e-011
369
root  17.3397 39.6449 -33.5866 10.8047 63.4094 17.4363
RightUpLeg  -7.25846 2.17358 -10.7233
RightLeg  61.1908 -1.70079 -3.82967
RightFoot  10.434 -0.553517 3.23542
RightToes  -4.65663e-010 0 -3.6325e-017
Spine  6.46192 1.86577 2.16111
Spine1  5.67582 3.99339 -9.38186
HEad  -11.5015 -9.65301 -0.854019
LeftShoulder1  9.37619 -12.8281 -50.1167
LeftArm  -6.76465 18.3173 -18.464
LeftForeArm  27.6254 -8.02909 -5.95032
LeftHand  -0.244104 0.0205437 5.32207
RightShoulder  6.90269 10.8124 41.9542
RightArm  -2.48613 1.76331 38.688
RightForeArm  24.7009 1.38333 7.04908
RightHand  -0.443825 -0.760512 -11.1191
LeftUpLeg  -6.34628 10.3063 -2.95326
LeftLeg  13.813 10.0368 -1.72341
LeftFoot  -0.977259 0.0522368 -0.520742
LeftToes  -7.27628e-011 -1.6005e-012 -1.37987e-011
370
root  18.4593 39.8972 -33.4317 8.76854 62.8672 15.29
RightUpLeg  -11.6466 -0.0262235 -9.25917
RightLeg  61.3225 -2.4944 -5.46005
RightFoot  7.17555 -0.263536 1.93061
RightToes  -4.65663e-010 0 -3.6325e-017
Spine  7.13734 0.98559 1.68725
Spine1  5.49586 2.72483 -7.81919
HEad  -12.4031 -7.79529 -0.856065
LeftShoulder1  9.25347 -12.7782 -49.6145
LeftArm  -8.31496 13.8003 -17.4488
LeftForeArm  26.0687 -9.33962 -5.64609
LeftHand  -0.244104 0.0205437 5.32207
RightShoulder  6.91506 10.7664 42.1795
RightArm  -1.26763 -0.429986 37.043
RightForeArm  25.2016 3.25219 7.33906
RightHand  -0.457013 -0.668354 -11.2146
LeftUpLeg  -3.207 8.29777 -1.8872
LeftLeg  11.7182 12.8688 -2.61688
LeftFoot  -2.37591 0.100393 -1.09494
LeftToes  -7.27628e-011 -1.6005e-012 -1.37987e-011
371
root  19.5403 40.0216 -33.2493 7.29515 62.358 13.7837
RightUpLeg  -15.2425 -2.51437 -7.63133
RightLeg  58.3249 -2.98679 -5.67487
RightFoot  5.56963 -0.080037 0.797841
RightToes  -4.65663e-010 0 -3.6325e-017
Spine  8.03484 0.208898 0.67184
Spine1  5.09086 1.42034 -6.14757
HEad  -13.1882 -6.02697 -0.751593
LeftShoulder1  9.08489 -12.6946 -48.9624
LeftArm  -9.93592 9.61709 -16.4065
LeftForeArm  24.0878 -11.0415 -5.22956
LeftHand  -0.244104 0.0205437 5.32207
RightShoulder  6.76126 10.5535 41.8429
RightArm  0.911186 -3.33508 35.3058
RightForeArm  21.6057 6.85522 8.00981
RightHand  -0.548927 0.105466 -11.6472
LeftUpLeg  -0.564558 6.70028 -1.30928
LeftLeg  10.343 14.915 -3.42348
LeftFoot  -3.55663 0.0987087 -1.12878
LeftToes  -7.27628e-011 -1.6005e-012 -1.37987e-011
372
root  20.622 40.1245 -33.0374 6.09746 61.8124 12.7463
RightUpLeg  -17.6152 -5.054 -5.78864
RightLeg  52.2998 -3.9731 -5.85474
RightFoot  4.23077 0.0721667 -0.31641
RightToes  -4.65663e-010 0 -3.6325e-017
Spine  9.06862 -0.517597 -0.55442
Spine1  4.63126 0.134226 -4.18096
HEad  -13.9868 -4.30538 -0.738822
LeftShoulder1  8.97336 -12.6444 -48.5091
LeftArm  -11.415 5.85034 -14.9332
LeftForeArm  21.6798 -13.113 -4.76835
LeftHand  -0.244104 0.0205437 5.32207
RightShoulder  6.56087 10.3004 41.311
RightArm  4.81851 -6.08083 33.5217
RightForeArm  14.9639 10.8492 8.22677
RightHand  -0.638029 0.848667 -11.9742
LeftUpLeg  2.24763 5.75812 -1.14943
LeftLeg  8.81859 16.2034 -3.99
LeftFoot  -4.31388 0.0820917 -0.910817
LeftToes  -7.27628e-011 -1.6005e-012 -1.37987e-011
373
root  21.6983 40.1057 -32.7769 5.73901 61.097 12.601
RightUpLeg  -18.8677 -8.16379 -4.07458
RightLeg  43.7056 -5.05309 -5.46099
RightFoot  1.7548 0.0528985 -0.336461
RightToes  -4.65663e-010 0 -3.6325e-017
Spine  9.90409 -1.0908 -2.11459
Spine1  4.38605 -0.97263 -2.4493
HEad  -14.6777 -2.86764 -0.696081
LeftShoulder1  8.8701 -12.5928 -48.1005
LeftArm  -12.7306 2.26102 -13.0998
LeftForeArm  19.6017 -15.21 -4.37008
LeftHand  -0.244104 0.0205437 5.32207
RightShoulder  6.38508 10.0533 40.9067
RightArm  9.19537 -8.40888 31.8109
RightForeArm  8.77274 14.524 7.45595
RightHand  -0.683973 1.16228 -12.2353
LeftUpLeg  4.67576 5.66445 -1.49584
LeftLeg  8.12777 16.8795 -4.07387
LeftFoot  -5.91955 0.105421 -1.53596
LeftToes  -7.27628e-011 -1.6005e-012 -1.37987e-011
374
root  22.8114 39.8983 -32.4412 6.55328 60.0526 13.6092
RightUpLeg  -19.4286 -12.8675 -2.43411
RightLeg  33.3131 -4.74349 -3.74995
RightFoot  -0.0544757 -0.0311426 0.302108
RightToes  -4.65663e-010 0 -3.6325e-017
Spine  10.1876 -1.43766 -4.08325
Spine1  4.37776 -1.75757 -1.24985
HEad  -15.2155 -1.75779 -0.617219
LeftShoulder1  8.71064 -12.4872 -47.5396
LeftArm  -13.882 -1.20765 -11.2609
LeftForeArm  18.4668 -17.0822 -4.09962
LeftHand  -0.244104 0.0205437 5.32207
RightShoulder  6.20079 9.81199 40.4057
RightArm  10.721 -10.3929 30.5567
RightForeArm  6.34073 16.7299 6.55187
RightHand  -0.719193 1.29806 -12.6036
LeftUpLeg  6.40657 5.70574 -2.45381
LeftLeg  8.8117 17.6486 -3.81836
LeftFoot  -8.50578 0.11907 -2.71591
LeftToes  -7.27628e-011 -1.6005e-012 -1.37987e-011
375
root  23.963 39.6986 -32.0363 7.647 58.9651 14.7853
RightUpLeg  -19.1901 -18.7958 -0.433125
RightLeg  21.2206 -3.57904 -1.2912
RightFoot  0.0760035 -0.055467 0.556486
RightToes  -4.65663e-010 0 -3.6325e-017
Spine  9.91451 -1.71556 -5.83103
Spine1  4.53348 -2.39694 0.0631334
HEad  -15.6409 -0.732698 -0.67658
LeftShoulder1  8.54864 -12.3663 -47.0008
LeftArm  -14.8062 -4.15775 -9.56004
LeftForeArm  18.0432 -18.9226 -3.92896
LeftHand  -0.244104 0.0205437 5.32207
RightShoulder  6.00256 9.60062 39.6848
RightArm  8.87121 -12.0841 29.8238
RightForeArm  6.75351 16.7384 6.37476
RightHand  -0.768547 1.50146 -13.0731
LeftUpLeg  8.36792 5.607 -3.54743
LeftLeg  8.7701 18.4887 -3.88591
LeftFoot  -10.3201 0.0912272 -3.13443
LeftToes  -7.27628e-011 -1.6005e-012 -1.37987e-011
376
root  25.1247 39.5391 -31.5588 8.77306 58.2112 15.9004
RightUpLeg  -17.0186 -17.8666 -0.893336
RightLeg  7.04747 -9.62075 3.08572
RightFoot  0.607658 -0.111729 1.10019
RightToes  -4.65663e-010 0 -3.6325e-017
Spine  9.3242 -2.04249 -7.34681
Spine1  4.68961 -3.09378 1.63326
HEad  -15.8241 0.306808 -0.899596
LeftShoulder1  8.43799 -12.299 -46.58
LeftArm  -15.6249 -6.22523 -8.12462
LeftForeArm  18.0184 -20.9497 -3.86289
LeftHand  -0.244104 0.0205437 5.32207
RightShoulder  5.85902 9.43879 39.1748
RightArm  4.54074 -13.506 29.1049
RightForeArm  8.44669 14.6038 6.85984
RightHand  -0.806122 1.59079 -13.5339
LeftUpLeg  10.6227 5.41201 -4.51255
LeftLeg  7.96572 19.153 -4.24223
LeftFoot  -11.5032 0.0640038 -3.14457
LeftToes  -7.27628e-011 -1.6005e-012 -1.37987e-011
